<svg width="19" height="17" viewBox="0 0 19 17" fill="none" xmlns="http://www.w3.org/2000/svg">
<path d="M0 7.65381C0 8.08594 0.322266 8.4375 0.842285 8.4375C1.08398 8.4375 1.31104 8.31299 1.50879 8.14453L8.74512 2.08008C8.96484 1.88965 9.22119 1.88965 9.44824 2.08008L16.6699 8.14453C16.8677 8.31299 17.0947 8.4375 17.3438 8.4375C17.8198 8.4375 18.1787 8.13721 18.1787 7.66846C18.1787 7.39746 18.0688 7.17041 17.8564 6.9873L15.791 5.25146V2.146C15.791 1.81641 15.5713 1.604 15.2417 1.604H14.0991C13.7695 1.604 13.5425 1.81641 13.5425 2.146V3.36914L10.2319 0.585938C9.54346 0 8.65723 0 7.96143 0.585938L0.32959 6.99463C0.109863 7.17041 0 7.41943 0 7.65381ZM2.43164 14.2676C2.43164 15.3442 3.12744 16.0107 4.24805 16.0107H13.9307C15.0513 16.0107 15.7471 15.3442 15.7471 14.2676V8.85498L9.55078 3.65479C9.26514 3.41309 8.91357 3.42041 8.62793 3.65479L2.43164 8.84766V14.2676ZM11.0303 14.3774H7.14111V9.68994C7.14111 9.3457 7.37549 9.11865 7.71973 9.11865H10.459C10.8105 9.11865 11.0303 9.3457 11.0303 9.68994V14.3774Z" fill="#A58AA5"/>
</svg>
