<svg width="22" height="20" viewBox="0 0 22 20" fill="none" xmlns="http://www.w3.org/2000/svg">
<g filter="url(#filter0_d_1038_2542)">
<path d="M4.46875 17.3594C4.13021 17.3594 3.90885 17.2552 3.80469 17.0469C3.70573 16.8438 3.76042 16.6146 3.96875 16.3594C4.07812 16.2188 4.22135 16.0391 4.39844 15.8203C4.58073 15.6016 4.77083 15.3594 4.96875 15.0938C5.16667 14.8333 5.34896 14.5651 5.51562 14.2891C5.55729 14.2057 5.56771 14.1328 5.54688 14.0703C5.52604 14.0078 5.46875 13.9505 5.375 13.8984C4.48958 13.4141 3.73958 12.8411 3.125 12.1797C2.51042 11.5182 2.04427 10.7995 1.72656 10.0234C1.40885 9.24219 1.25 8.42969 1.25 7.58594C1.25 6.53385 1.49219 5.54948 1.97656 4.63281C2.46094 3.71094 3.13021 2.90365 3.98438 2.21094C4.84375 1.51823 5.83854 0.976562 6.96875 0.585938C8.10417 0.195312 9.32292 0 10.625 0C11.9271 0 13.1432 0.195312 14.2734 0.585938C15.4089 0.976562 16.4062 1.51823 17.2656 2.21094C18.125 2.90365 18.7943 3.71094 19.2734 4.63281C19.7578 5.54948 20 6.53385 20 7.58594C20 8.52344 19.8307 9.38542 19.4922 10.1719C19.1589 10.9583 18.6849 11.6615 18.0703 12.2812C17.4557 12.8958 16.7266 13.4193 15.8828 13.8516C15.0443 14.2786 14.1172 14.6042 13.1016 14.8281C12.0911 15.0573 11.0208 15.1719 9.89062 15.1719C9.85938 15.1719 9.82292 15.1719 9.78125 15.1719C9.74479 15.1719 9.70312 15.1693 9.65625 15.1641C9.57812 15.1641 9.5026 15.1745 9.42969 15.1953C9.36198 15.2161 9.28125 15.2578 9.1875 15.3203C8.80208 15.5911 8.38542 15.849 7.9375 16.0938C7.49479 16.3385 7.05208 16.5547 6.60938 16.7422C6.17188 16.9349 5.76562 17.0859 5.39062 17.1953C5.01562 17.3047 4.70833 17.3594 4.46875 17.3594Z" fill="white"/>
</g>
<defs>
<filter id="filter0_d_1038_2542" x="0" y="0" width="21.25" height="19.8594" filterUnits="userSpaceOnUse" color-interpolation-filters="sRGB">
<feFlood flood-opacity="0" result="BackgroundImageFix"/>
<feColorMatrix in="SourceAlpha" type="matrix" values="0 0 0 0 0 0 0 0 0 0 0 0 0 0 0 0 0 0 127 0" result="hardAlpha"/>
<feOffset dy="1.25"/>
<feGaussianBlur stdDeviation="0.625"/>
<feColorMatrix type="matrix" values="0 0 0 0 1 0 0 0 0 1 0 0 0 0 1 0 0 0 0.5 0"/>
<feBlend mode="normal" in2="BackgroundImageFix" result="effect1_dropShadow_1038_2542"/>
<feBlend mode="normal" in="SourceGraphic" in2="effect1_dropShadow_1038_2542" result="shape"/>
</filter>
</defs>
</svg>
