<svg width="18" height="6" viewBox="0 0 18 6" fill="none" xmlns="http://www.w3.org/2000/svg">
<g filter="url(#filter0_d_1038_2545)">
<path d="M3.00781 3.50781C2.6849 3.50781 2.39062 3.42969 2.125 3.27344C1.85938 3.11198 1.64583 2.89844 1.48438 2.63281C1.32812 2.36719 1.25 2.07552 1.25 1.75781C1.25 1.4349 1.32812 1.14062 1.48438 0.875C1.64583 0.609375 1.85938 0.398438 2.125 0.242188C2.39062 0.0807292 2.6849 0 3.00781 0C3.32552 0 3.61719 0.0807292 3.88281 0.242188C4.14844 0.398438 4.35938 0.609375 4.51562 0.875C4.67708 1.14062 4.75781 1.4349 4.75781 1.75781C4.75781 2.07552 4.67708 2.36719 4.51562 2.63281C4.35938 2.89844 4.14844 3.11198 3.88281 3.27344C3.61719 3.42969 3.32552 3.50781 3.00781 3.50781ZM8.90625 3.50781C8.58333 3.50781 8.28906 3.42969 8.02344 3.27344C7.75781 3.11198 7.54427 2.89844 7.38281 2.63281C7.22656 2.36719 7.14844 2.07552 7.14844 1.75781C7.14844 1.4349 7.22656 1.14062 7.38281 0.875C7.54427 0.609375 7.75781 0.398438 8.02344 0.242188C8.28906 0.0807292 8.58333 0 8.90625 0C9.22396 0 9.51562 0.0807292 9.78125 0.242188C10.0469 0.398438 10.2578 0.609375 10.4141 0.875C10.5755 1.14062 10.6562 1.4349 10.6562 1.75781C10.6562 2.07552 10.5755 2.36719 10.4141 2.63281C10.2578 2.89844 10.0469 3.11198 9.78125 3.27344C9.51562 3.42969 9.22396 3.50781 8.90625 3.50781ZM14.8047 3.50781C14.4818 3.50781 14.1875 3.42969 13.9219 3.27344C13.6562 3.11198 13.4427 2.89844 13.2812 2.63281C13.125 2.36719 13.0469 2.07552 13.0469 1.75781C13.0469 1.4349 13.125 1.14062 13.2812 0.875C13.4427 0.609375 13.6562 0.398438 13.9219 0.242188C14.1875 0.0807292 14.4818 0 14.8047 0C15.1276 0 15.4193 0.0807292 15.6797 0.242188C15.9453 0.398438 16.1562 0.609375 16.3125 0.875C16.474 1.14062 16.5547 1.4349 16.5547 1.75781C16.5547 2.07552 16.474 2.36719 16.3125 2.63281C16.1562 2.89844 15.9453 3.11198 15.6797 3.27344C15.4193 3.42969 15.1276 3.50781 14.8047 3.50781Z" fill="white"/>
</g>
<defs>
<filter id="filter0_d_1038_2545" x="0" y="0" width="17.8047" height="6.00781" filterUnits="userSpaceOnUse" color-interpolation-filters="sRGB">
<feFlood flood-opacity="0" result="BackgroundImageFix"/>
<feColorMatrix in="SourceAlpha" type="matrix" values="0 0 0 0 0 0 0 0 0 0 0 0 0 0 0 0 0 0 127 0" result="hardAlpha"/>
<feOffset dy="1.25"/>
<feGaussianBlur stdDeviation="0.625"/>
<feColorMatrix type="matrix" values="0 0 0 0 1 0 0 0 0 1 0 0 0 0 1 0 0 0 0.5 0"/>
<feBlend mode="normal" in2="BackgroundImageFix" result="effect1_dropShadow_1038_2545"/>
<feBlend mode="normal" in="SourceGraphic" in2="effect1_dropShadow_1038_2545" result="shape"/>
</filter>
</defs>
</svg>
