<svg width="18" height="16" viewBox="0 0 18 16" fill="none" xmlns="http://www.w3.org/2000/svg">
<path d="M2.97363 15.9082C3.87451 15.9082 5.98389 14.9927 7.36084 14.0186C7.50732 13.916 7.63184 13.8794 7.75635 13.8794C7.85156 13.8867 7.93213 13.894 7.99805 13.894C13.2935 13.8867 17.2266 11.0742 17.2266 6.94336C17.2266 3.09814 13.396 0 8.61328 0C3.83057 0 0 3.09814 0 6.94336C0 9.30908 1.39893 11.4478 3.83789 12.7734C3.9917 12.854 4.02832 12.9639 3.95508 13.1104C3.51562 13.8428 2.8125 14.6338 2.51953 15.0146C2.16797 15.4541 2.36572 15.9082 2.97363 15.9082Z" fill="#A58AA5"/>
</svg>
