<svg width="17" height="17" viewBox="0 0 17 17" fill="none" xmlns="http://www.w3.org/2000/svg">
<path d="M0 8.26172C0 8.95508 0.576172 9.52148 1.25977 9.52148H7.00195V15.2637C7.00195 15.957 7.56836 16.5234 8.26172 16.5234C8.95508 16.5234 9.52148 15.957 9.52148 15.2637V9.52148H15.2637C15.957 9.52148 16.5234 8.95508 16.5234 8.26172C16.5234 7.56836 15.957 7.00195 15.2637 7.00195H9.52148V1.25977C9.52148 0.576172 8.95508 0 8.26172 0C7.56836 0 7.00195 0.576172 7.00195 1.25977V7.00195H1.25977C0.576172 7.00195 0 7.56836 0 8.26172Z" fill="#A58AA5"/>
</svg>
