<svg width="24" height="24" viewBox="0 0 24 24" fill="none" xmlns="http://www.w3.org/2000/svg">
<path d="M23.1678 9.40668H22.2256V9.35813H11.6977V14.0372H18.3086C17.3441 16.761 14.7525 18.7163 11.6977 18.7163C7.82164 18.7163 4.67907 15.5737 4.67907 11.6977C4.67907 7.82164 7.82164 4.67907 11.6977 4.67907C13.4868 4.67907 15.1146 5.35402 16.3539 6.45652L19.6626 3.14784C17.5734 1.20077 14.7788 0 11.6977 0C5.23763 0 0 5.23763 0 11.6977C0 18.1577 5.23763 23.3953 11.6977 23.3953C18.1577 23.3953 23.3953 18.1577 23.3953 11.6977C23.3953 10.9133 23.3146 10.1477 23.1678 9.40668Z" fill="#FFC107"/>
<path d="M1.34802 6.25299L5.19129 9.07154C6.23121 6.49688 8.74972 4.67906 11.6969 4.67906C13.4861 4.67906 15.1138 5.35402 16.3532 6.45652L19.6619 3.14784C17.5727 1.20076 14.7781 0 11.6969 0C7.20387 0 3.30738 2.53664 1.34802 6.25299Z" fill="#FF3D00"/>
<path d="M11.6978 23.3957C14.7193 23.3957 17.4648 22.2394 19.5405 20.359L15.9201 17.2954C14.7062 18.2186 13.2229 18.7179 11.6978 18.7167C8.65528 18.7167 6.07185 16.7766 5.0986 14.0692L1.284 17.0082C3.21996 20.7965 7.15154 23.3957 11.6978 23.3957Z" fill="#4CAF50"/>
<path d="M23.1678 9.40667H22.2256V9.35812H11.6977V14.0372H18.3086C17.8473 15.3335 17.0162 16.4663 15.9182 17.2956L15.92 17.2944L19.5404 20.358C19.2842 20.5908 23.3954 17.5465 23.3954 11.6977C23.3954 10.9133 23.3146 10.1477 23.1678 9.40667Z" fill="#1976D2"/>
</svg>
