<svg width="20" height="20" viewBox="0 0 20 20" fill="none" xmlns="http://www.w3.org/2000/svg">
<g filter="url(#filter0_d_1038_2539)">
<path d="M1.25 11.9609C1.25 11.0651 1.40104 10.2578 1.70312 9.53906C2.00521 8.82031 2.41667 8.2526 2.9375 7.83594C3.45833 7.41927 4.04427 7.21094 4.69531 7.21094H5.70312C5.41667 7.61198 5.16146 8.04688 4.9375 8.51562C4.71875 8.97917 4.54427 9.48958 4.41406 10.0469C4.28906 10.6042 4.22396 11.2135 4.21875 11.875C4.20833 12.849 4.38021 13.7474 4.73438 14.5703C5.08854 15.3932 5.6224 16.099 6.33594 16.6875H5.00781C4.28906 16.6875 3.64583 16.4766 3.07812 16.0547C2.51562 15.6328 2.07031 15.0651 1.74219 14.3516C1.41406 13.6328 1.25 12.8359 1.25 11.9609ZM5.46875 11.8906C5.47396 11.2448 5.53385 10.6615 5.64844 10.1406C5.76302 9.61458 5.9401 9.11458 6.17969 8.64062C6.42448 8.16146 6.73698 7.67188 7.11719 7.17188C7.7526 6.33333 8.44792 5.41667 9.20312 4.42188C9.95833 3.42708 10.6432 2.33333 11.2578 1.14062C11.4557 0.765625 11.6562 0.481771 11.8594 0.289062C12.0625 0.0963542 12.3229 0 12.6406 0C13.026 0 13.3438 0.127604 13.5938 0.382812C13.849 0.638021 13.9766 0.979167 13.9766 1.40625C13.9766 1.78646 13.9036 2.19271 13.7578 2.625C13.6172 3.05729 13.4531 3.48698 13.2656 3.91406C13.0833 4.33594 12.9219 4.73438 12.7812 5.10938C12.6406 5.47917 12.5703 5.79688 12.5703 6.0625C12.5703 6.31771 12.6667 6.52083 12.8594 6.67188C13.0521 6.81771 13.3125 6.89062 13.6406 6.89062H16.5859C16.8932 6.89062 17.1693 6.96354 17.4141 7.10938C17.6589 7.25521 17.8516 7.45312 17.9922 7.70312C18.138 7.95312 18.2109 8.22917 18.2109 8.53125C18.2109 8.76562 18.1745 8.98177 18.1016 9.17969C18.0339 9.3776 17.9323 9.53906 17.7969 9.66406C17.7188 9.73698 17.7135 9.80729 17.7812 9.875C17.8802 9.99479 17.9583 10.151 18.0156 10.3438C18.0781 10.5312 18.1094 10.7292 18.1094 10.9375C18.1094 11.2188 18.0495 11.4766 17.9297 11.7109C17.8151 11.9453 17.6615 12.1302 17.4688 12.2656C17.375 12.3177 17.3594 12.388 17.4219 12.4766C17.599 12.7422 17.6875 13.0599 17.6875 13.4297C17.6875 13.7526 17.6016 14.0391 17.4297 14.2891C17.2578 14.5391 17.0312 14.737 16.75 14.8828C16.6823 14.9141 16.6719 14.9688 16.7188 15.0469C16.7656 15.1406 16.8021 15.2448 16.8281 15.3594C16.8594 15.4792 16.875 15.612 16.875 15.7578C16.875 16.1693 16.7396 16.5026 16.4688 16.7578C16.1979 17.0182 15.862 17.1979 15.4609 17.2969C15.2109 17.3542 14.8802 17.401 14.4688 17.4375C14.0625 17.474 13.599 17.4896 13.0781 17.4844H11.9453C10.9661 17.4792 10.0755 17.3359 9.27344 17.0547C8.47656 16.7786 7.79427 16.388 7.22656 15.8828C6.65885 15.3828 6.22135 14.7943 5.91406 14.1172C5.61198 13.4349 5.46354 12.6927 5.46875 11.8906Z" fill="white"/>
</g>
<defs>
<filter id="filter0_d_1038_2539" x="0" y="0" width="19.4609" height="19.9922" filterUnits="userSpaceOnUse" color-interpolation-filters="sRGB">
<feFlood flood-opacity="0" result="BackgroundImageFix"/>
<feColorMatrix in="SourceAlpha" type="matrix" values="0 0 0 0 0 0 0 0 0 0 0 0 0 0 0 0 0 0 127 0" result="hardAlpha"/>
<feOffset dy="1.25"/>
<feGaussianBlur stdDeviation="0.625"/>
<feColorMatrix type="matrix" values="0 0 0 0 1 0 0 0 0 1 0 0 0 0 1 0 0 0 0.5 0"/>
<feBlend mode="normal" in2="BackgroundImageFix" result="effect1_dropShadow_1038_2539"/>
<feBlend mode="normal" in="SourceGraphic" in2="effect1_dropShadow_1038_2539" result="shape"/>
</filter>
</defs>
</svg>
