<svg width="14" height="18" viewBox="0 0 14 18" fill="none" xmlns="http://www.w3.org/2000/svg">
<g clip-path="url(#clip0_393_16202)">
<path d="M9.20327 15.8211C8.83691 17.3102 7.57681 17.9833 6.48256 17.9232C5.40498 17.8639 4.33793 17.1273 4.03651 15.8211C3.98342 15.8211 3.92506 15.8211 3.86671 15.8211C2.95235 15.8211 2.03798 15.8189 1.12362 15.822C0.665563 15.8233 0.31105 15.643 0.11054 15.2266C-0.0855831 14.819 -0.0118725 14.4386 0.258838 14.0748C0.581761 13.6405 0.883624 13.1899 1.189 12.7428C1.3158 12.5572 1.36099 12.3453 1.36055 12.1202C1.35835 10.9048 1.33422 9.68906 1.36494 8.47459C1.42197 6.23563 2.4684 4.5982 4.50246 3.66146C7.47634 2.29211 11.0294 4.08968 11.734 7.29259C11.8226 7.69536 11.8604 8.11569 11.8665 8.52856C11.8836 9.71056 11.8757 10.8934 11.8705 12.0759C11.8691 12.3611 11.9433 12.612 12.1083 12.8437C12.4198 13.2798 12.7278 13.719 13.0327 14.16C13.271 14.5048 13.3012 14.8756 13.113 15.2472C12.9243 15.6201 12.604 15.8167 12.1859 15.8198C11.2496 15.8268 10.3133 15.822 9.37702 15.8224C9.31822 15.8211 9.25899 15.8211 9.20327 15.8211ZM12.1644 14.7615C11.8481 14.3052 11.5467 13.8638 11.2378 13.4277C10.9535 13.0253 10.8179 12.5822 10.8201 12.0895C10.8249 10.9075 10.8253 9.72504 10.8188 8.54303C10.8174 8.27627 10.7968 8.00644 10.7551 7.74319C10.391 5.43841 8.05461 3.84661 5.77616 4.3446C3.76711 4.78379 2.41443 6.45808 2.4118 8.51188C2.41005 9.65571 2.39908 10.8 2.41663 11.9434C2.42584 12.5497 2.2657 13.0815 1.90285 13.5659C1.6159 13.9494 1.35353 14.3517 1.06878 14.7619C4.77186 14.7615 8.453 14.7615 12.1644 14.7615ZM8.07874 15.8294C7.10296 15.8294 6.12892 15.8294 5.1527 15.8294C5.31811 16.4253 5.96571 16.878 6.63349 16.8719C7.28679 16.8662 7.92562 16.4073 8.07874 15.8294Z" fill="black"/>
</g>
<circle cx="8.96225" cy="3.46036" r="3.46036" fill="#B378FE"/>
<defs>
<clipPath id="clip0_393_16202">
<rect width="13.2359" height="14.7298" fill="white" transform="translate(0 3.19711)"/>
</clipPath>
</defs>
</svg>
